<?xml version="1.0" encoding="UTF-8"?>
<!DOCTYPE svg PUBLIC "-//W3C//DTD SVG 1.1//EN" "http://www.w3.org/Graphics/SVG/1.1/DTD/svg11.dtd">
<!-- Creator: CorelDRAW 2019 (64-Bit) -->
<svg xmlns="http://www.w3.org/2000/svg" xml:space="preserve" width="42.3332mm" height="42.3332mm" version="1.1" style="shape-rendering:geometricPrecision; text-rendering:geometricPrecision; image-rendering:optimizeQuality; fill-rule:evenodd; clip-rule:evenodd"
viewBox="0 0 42333.2 42333.2"
 xmlns:xlink="http://www.w3.org/1999/xlink"
 xmlns:xodm="http://www.corel.com/coreldraw/odm/2003">
 <defs>
  <style type="text/css">
   <![CDATA[
    .fil0 {fill:#1763AD}
   ]]>
  </style>
 </defs>
 <g id="Layer_x0020_1">
  <metadata id="CorelCorpID_0Corel-Layer"/>
  <g id="_1827077718368">
   <path class="fil0" d="M17395.7 11859.5l0 5028.1 -5028.1 0c-165.4,0 -215.4,49.9 -215.4,215.4l0 7111.1c0,165.5 50,215.4 215.4,215.4l5028.1 0 0 5171.7 7541.9 0 0 -5171.7 5171.7 0 0 -7541.9 -5171.7 0 0 -5028.1c0,-165.5 -49.9,-215.4 -215.4,-215.4l-7111.1 0c-165.5,0 -215.4,49.9 -215.4,215.4z"/>
   <path class="fil0" d="M21346.2 33192.7c-3105.2,0 -6513,-1161.9 -8564.4,-3215.5 -399.3,-399.7 -230.4,-78 -762.6,-745.8 -321.2,-403 -545.6,-528.9 -1045.6,-1252.9 -466.3,-675 -761.1,-1183.8 -1144.4,-1944.2 -1568.9,-3112.5 -1617.7,-7546.1 -47.7,-10655.4 1498.9,-2968.5 3077.5,-4579.1 6057.7,-6081.4 3519.3,-1774 8292.4,-1505.6 11643.9,519.4l2610.6 1986.5c152.2,162.7 165.7,232.2 320.1,398.2 938.3,1008.6 1542.9,1937.7 2162.6,3224.5 1590.8,3303.6 1417.3,7141.8 -4.2,10460.8 -840.5,1962.7 -2491.7,3799.1 -4217,5048.9 -318.2,230.5 -586,378.2 -926.2,582.2 -1628,976.1 -3878.8,1674.7 -6082.8,1674.7zm-14006.6 -12570.1c0,986.4 180.3,2155.1 340.7,2963.5 566.8,2856.1 2474.3,5973.4 4788.5,7781.5 2114.7,1652.3 5052.5,3046.1 7943.7,3046.1 2828.4,0 4068.8,-132 6679.1,-1293.8 762.6,-339.5 2257.5,-1292.1 2963.1,-1921.2 859.9,-766.5 1682.2,-1574.8 2339.7,-2544.7 435,-641.8 869.1,-1283 1210.9,-2021.4 2548.9,-5505.7 1428.4,-11569.7 -2867.3,-15904.5 -2694.2,-2718.6 -7351.6,-4363.1 -11148.4,-3785.7 -1560.4,237.3 -2607.2,459.2 -4060.7,1111 -4491.4,2014.2 -7341.8,6006.9 -8058.5,10904.2 -56.9,388.2 -130.8,1231.4 -130.8,1665z"/>
  </g>
 </g>
</svg>
